<?xml version="1.0" encoding="UTF-8"?>
<svg xmlns="http://www.w3.org/2000/svg" xmlns:xlink="http://www.w3.org/1999/xlink" width="130px" height="87px" viewBox="0 0 130 87" version="1.1">
<g id="surface1">
<path style=" stroke:none;fill-rule:nonzero;fill:rgb(99.607843%,99.607843%,99.607843%);fill-opacity:1;" d="M 0 0 C 42.898438 0 85.800781 0 130 0 C 130 28.710938 130 57.421875 130 87 C 87.101562 87 44.199219 87 0 87 C 0 58.289062 0 29.578125 0 0 Z M 0 0 "/>
<path style=" stroke:none;fill-rule:nonzero;fill:rgb(92.941177%,27.058825%,36.078432%);fill-opacity:1;" d="M 21.921875 33.558594 C 30.753906 33.558594 30.753906 33.558594 32.144531 34.898438 C 32.207031 34.960938 32.269531 35.023438 32.332031 35.089844 C 32.382812 35.140625 32.433594 35.191406 32.484375 35.242188 C 32.816406 35.601562 33.003906 35.992188 33.175781 36.449219 C 33.226562 36.578125 33.226562 36.578125 33.277344 36.714844 C 33.574219 37.773438 33.546875 38.921875 33.0625 39.914062 C 32.710938 40.527344 32.265625 40.9375 31.652344 41.289062 C 31.597656 41.289062 31.542969 41.289062 31.484375 41.289062 C 31.6875 41.519531 31.894531 41.632812 32.167969 41.769531 C 33.105469 42.277344 33.773438 43 34.207031 43.980469 C 34.308594 44.386719 34.300781 44.777344 34.296875 45.195312 C 34.300781 45.277344 34.300781 45.359375 34.300781 45.441406 C 34.300781 45.902344 34.261719 46.289062 34.109375 46.726562 C 34.085938 46.804688 34.058594 46.878906 34.035156 46.953125 C 34.015625 47.019531 33.992188 47.082031 33.96875 47.148438 C 33.949219 47.214844 33.925781 47.277344 33.902344 47.347656 C 33.878906 47.417969 33.878906 47.417969 33.855469 47.492188 C 33.796875 47.492188 33.742188 47.492188 33.683594 47.492188 C 33.667969 47.550781 33.648438 47.605469 33.632812 47.664062 C 33.203125 48.601562 32.339844 49.238281 31.398438 49.617188 C 28.332031 50.753906 25.519531 50.042969 21.921875 50.042969 C 21.921875 44.601562 21.921875 39.164062 21.921875 33.558594 Z M 21.921875 33.558594 "/>
<path style=" stroke:none;fill-rule:nonzero;fill:rgb(92.941177%,27.450982%,36.470589%);fill-opacity:1;" d="M 43.632812 39.851562 C 44.832031 40.789062 45.824219 41.996094 46.019531 43.5625 C 46.132812 45.039062 45.972656 46.503906 45.023438 47.710938 C 44.832031 47.929688 44.636719 48.136719 44.433594 48.34375 C 44.382812 48.398438 44.328125 48.453125 44.277344 48.507812 C 43.257812 49.488281 41.871094 49.835938 40.5 49.824219 C 40.40625 49.824219 40.3125 49.824219 40.214844 49.820312 C 39.5625 49.808594 39.011719 49.746094 38.425781 49.445312 C 38.335938 49.40625 38.246094 49.367188 38.152344 49.324219 C 36.804688 48.671875 35.949219 47.53125 35.460938 46.132812 C 35.429688 46.042969 35.394531 45.953125 35.363281 45.863281 C 34.957031 44.457031 35.203125 43.011719 35.882812 41.75 C 36.683594 40.394531 37.859375 39.503906 39.371094 39.09375 C 40.84375 38.796875 42.378906 38.96875 43.632812 39.851562 Z M 43.632812 39.851562 "/>
<path style=" stroke:none;fill-rule:nonzero;fill:rgb(99.607843%,98.823529%,99.215686%);fill-opacity:1;" d="M 42.0625 41.96875 C 42.679688 42.394531 43.039062 42.949219 43.25 43.671875 C 43.414062 44.675781 43.246094 45.472656 42.65625 46.304688 C 42.296875 46.804688 41.878906 47.039062 41.300781 47.238281 C 40.539062 47.34375 39.753906 47.28125 39.085938 46.871094 C 38.527344 46.433594 38.125 45.730469 38 45.03125 C 37.953125 44.382812 38 43.839844 38.253906 43.246094 C 38.277344 43.1875 38.300781 43.128906 38.324219 43.066406 C 38.589844 42.445312 39.058594 42.046875 39.667969 41.761719 C 40.476562 41.476562 41.320312 41.542969 42.0625 41.96875 Z M 42.0625 41.96875 "/>
<path style=" stroke:none;fill-rule:nonzero;fill:rgb(99.607843%,99.215686%,99.215686%);fill-opacity:1;" d="M 25.390625 43.160156 C 25.925781 43.15625 26.460938 43.148438 27.015625 43.144531 C 27.265625 43.140625 27.265625 43.140625 27.519531 43.136719 C 28.542969 43.128906 29.605469 43.128906 30.46875 43.753906 C 30.878906 44.199219 31.019531 44.546875 31.003906 45.144531 C 30.945312 45.652344 30.742188 46.066406 30.375 46.421875 C 29.753906 46.882812 29.03125 46.9375 28.285156 46.921875 C 28.171875 46.921875 28.171875 46.921875 28.058594 46.921875 C 27.785156 46.921875 27.515625 46.917969 27.242188 46.914062 C 26.632812 46.910156 26.019531 46.902344 25.390625 46.898438 C 25.390625 45.664062 25.390625 44.429688 25.390625 43.160156 Z M 25.390625 43.160156 "/>
<path style=" stroke:none;fill-rule:nonzero;fill:rgb(99.607843%,98.823529%,99.215686%);fill-opacity:1;" d="M 25.390625 36.703125 C 26.160156 36.695312 26.160156 36.695312 26.945312 36.6875 C 27.105469 36.683594 27.265625 36.683594 27.429688 36.679688 C 29.089844 36.664062 29.089844 36.664062 29.664062 37.125 C 29.707031 37.183594 29.75 37.242188 29.796875 37.304688 C 29.84375 37.363281 29.890625 37.421875 29.9375 37.480469 C 30.234375 37.910156 30.171875 38.40625 30.128906 38.914062 C 30.015625 39.328125 29.792969 39.667969 29.445312 39.929688 C 28.796875 40.28125 27.984375 40.367188 27.257812 40.363281 C 27.160156 40.363281 27.0625 40.363281 26.960938 40.363281 C 26.835938 40.363281 26.714844 40.363281 26.585938 40.363281 C 26.191406 40.359375 25.796875 40.359375 25.390625 40.355469 C 25.390625 39.152344 25.390625 37.945312 25.390625 36.703125 Z M 25.390625 36.703125 "/>
<path style=" stroke:none;fill-rule:nonzero;fill:rgb(90.588236%,90.588236%,90.588236%);fill-opacity:1;" d="M 58.820312 35.257812 C 59.714844 35.257812 60.609375 35.257812 61.53125 35.257812 C 61.53125 35.285156 61.53125 35.316406 61.53125 35.34375 C 60.664062 35.34375 59.796875 35.34375 58.90625 35.34375 C 58.90625 39.96875 58.90625 44.597656 58.90625 49.363281 C 59.742188 49.363281 60.582031 49.363281 61.445312 49.363281 C 61.445312 47.820312 61.445312 46.277344 61.445312 44.6875 C 61.699219 44.773438 61.699219 44.773438 61.847656 44.980469 C 61.882812 45.054688 61.917969 45.125 61.953125 45.199219 C 61.925781 45.253906 61.898438 45.3125 61.867188 45.367188 C 61.8125 45.285156 61.757812 45.199219 61.699219 45.113281 C 61.699219 45.167969 61.699219 45.21875 61.695312 45.273438 C 61.6875 45.824219 61.679688 46.375 61.667969 46.925781 C 61.664062 47.128906 61.660156 47.335938 61.65625 47.539062 C 61.652344 47.835938 61.648438 48.128906 61.640625 48.425781 C 61.640625 48.5625 61.640625 48.5625 61.636719 48.703125 C 61.636719 48.789062 61.632812 48.875 61.632812 48.960938 C 61.628906 49.039062 61.628906 49.113281 61.628906 49.191406 C 61.613281 49.363281 61.613281 49.363281 61.53125 49.445312 C 60.636719 49.445312 59.742188 49.445312 58.820312 49.445312 C 58.820312 44.765625 58.820312 40.082031 58.820312 35.257812 Z M 58.820312 35.257812 "/>
<path style=" stroke:none;fill-rule:nonzero;fill:rgb(94.509804%,94.509804%,94.509804%);fill-opacity:1;" d="M 61.53125 35.34375 C 61.558594 35.34375 61.585938 35.34375 61.613281 35.34375 C 61.625 36.28125 61.636719 37.21875 61.648438 38.15625 C 61.652344 38.589844 61.65625 39.027344 61.664062 39.460938 C 61.667969 39.878906 61.671875 40.300781 61.679688 40.71875 C 61.679688 40.878906 61.683594 41.039062 61.683594 41.199219 C 61.6875 41.425781 61.6875 41.648438 61.691406 41.875 C 61.691406 41.941406 61.691406 42.007812 61.695312 42.074219 C 61.695312 42.324219 61.699219 42.570312 61.699219 42.820312 C 61.574219 42.863281 61.574219 42.863281 61.445312 42.90625 C 61.441406 41.933594 61.441406 40.957031 61.441406 39.984375 C 61.441406 39.535156 61.441406 39.082031 61.4375 38.628906 C 61.4375 38.195312 61.4375 37.757812 61.4375 37.320312 C 61.4375 37.15625 61.4375 36.988281 61.4375 36.824219 C 61.4375 36.589844 61.4375 36.355469 61.4375 36.125 C 61.433594 36.054688 61.433594 35.984375 61.433594 35.914062 C 61.4375 35.4375 61.4375 35.4375 61.53125 35.34375 Z M 61.53125 35.34375 "/>
<path style=" stroke:none;fill-rule:nonzero;fill:rgb(94.117647%,94.117647%,94.117647%);fill-opacity:1;" d="M 61.445312 44.6875 C 61.699219 44.773438 61.699219 44.773438 61.847656 44.980469 C 61.898438 45.089844 61.898438 45.089844 61.953125 45.199219 C 61.925781 45.253906 61.898438 45.3125 61.867188 45.367188 C 61.8125 45.285156 61.757812 45.199219 61.699219 45.113281 C 61.671875 46.515625 61.644531 47.917969 61.613281 49.363281 C 61.558594 49.363281 61.503906 49.363281 61.445312 49.363281 C 61.445312 47.820312 61.445312 46.277344 61.445312 44.6875 Z M 61.445312 44.6875 "/>
<path style=" stroke:none;fill-rule:nonzero;fill:rgb(94.117647%,94.117647%,94.117647%);fill-opacity:1;" d="M 65.242188 39.160156 C 65.308594 39.160156 65.371094 39.160156 65.441406 39.160156 C 65.648438 39.160156 65.859375 39.160156 66.070312 39.160156 C 66.210938 39.160156 66.351562 39.164062 66.496094 39.164062 C 66.84375 39.164062 67.191406 39.164062 67.539062 39.167969 C 67.511719 39.277344 67.484375 39.390625 67.453125 39.507812 C 67.414062 39.421875 67.414062 39.421875 67.371094 39.335938 C 66.992188 39.328125 66.613281 39.320312 66.234375 39.3125 C 66.109375 39.3125 65.980469 39.308594 65.851562 39.304688 C 65.664062 39.300781 65.480469 39.296875 65.296875 39.296875 C 65.183594 39.292969 65.074219 39.289062 64.957031 39.289062 C 64.589844 39.347656 64.476562 39.480469 64.238281 39.761719 C 64.128906 39.847656 64.015625 39.933594 63.898438 40.015625 C 64.210938 39.3125 64.507812 39.152344 65.242188 39.160156 Z M 65.242188 39.160156 "/>
<path style=" stroke:none;fill-rule:nonzero;fill:rgb(95.294118%,95.686275%,95.294118%);fill-opacity:1;" d="M 69.65625 35.683594 C 69.710938 35.710938 69.765625 35.738281 69.824219 35.769531 C 69.34375 36.25 68.863281 36.730469 68.386719 37.210938 C 68.503906 36.855469 68.671875 36.628906 68.925781 36.351562 C 68.988281 36.28125 69.054688 36.207031 69.121094 36.132812 C 69.292969 35.964844 69.457031 35.820312 69.65625 35.683594 Z M 69.65625 35.683594 "/>
<path style=" stroke:none;fill-rule:nonzero;fill:rgb(94.509804%,94.509804%,94.509804%);fill-opacity:1;" d="M 49.003906 40.015625 C 49.058594 40.042969 49.117188 40.074219 49.171875 40.101562 C 48.78125 40.492188 48.390625 40.886719 47.988281 41.289062 C 47.988281 41.035156 47.988281 41.035156 48.164062 40.84375 C 48.246094 40.765625 48.328125 40.6875 48.410156 40.609375 C 48.519531 40.503906 48.625 40.394531 48.734375 40.289062 C 48.824219 40.195312 48.914062 40.105469 49.003906 40.015625 Z M 49.003906 40.015625 "/>
<path style=" stroke:none;fill-rule:nonzero;fill:rgb(95.686275%,48.235294%,54.509807%);fill-opacity:1;" d="M 35.632812 42.226562 C 35.769531 42.726562 35.617188 43.046875 35.378906 43.5 C 35.257812 43.179688 35.335938 42.984375 35.457031 42.671875 C 35.503906 42.546875 35.503906 42.546875 35.554688 42.417969 C 35.578125 42.355469 35.605469 42.292969 35.632812 42.226562 Z M 35.632812 42.226562 "/>
<path style=" stroke:none;fill-rule:nonzero;fill:rgb(95.294118%,95.294118%,95.294118%);fill-opacity:1;" d="M 89.96875 40.015625 C 90.023438 40.042969 90.078125 40.074219 90.136719 40.101562 C 90 40.242188 89.863281 40.386719 89.722656 40.527344 C 89.648438 40.605469 89.570312 40.683594 89.492188 40.765625 C 89.289062 40.953125 89.289062 40.953125 89.121094 40.953125 C 89.242188 40.660156 89.398438 40.496094 89.640625 40.292969 C 89.699219 40.242188 89.761719 40.1875 89.824219 40.132812 C 89.894531 40.078125 89.894531 40.078125 89.96875 40.015625 Z M 89.96875 40.015625 "/>
<path style=" stroke:none;fill-rule:nonzero;fill:rgb(94.509804%,94.509804%,94.509804%);fill-opacity:1;" d="M 81.503906 41.714844 C 81.585938 41.742188 81.671875 41.773438 81.757812 41.800781 C 81.710938 41.839844 81.664062 41.878906 81.617188 41.921875 C 81.527344 42 81.527344 42 81.433594 42.082031 C 81.375 42.132812 81.316406 42.1875 81.253906 42.242188 C 81.105469 42.371094 80.964844 42.507812 80.828125 42.648438 C 80.875 42.320312 81.03125 42.132812 81.25 41.886719 C 81.332031 41.828125 81.417969 41.773438 81.503906 41.714844 Z M 81.503906 41.714844 "/>
<path style=" stroke:none;fill-rule:nonzero;fill:rgb(94.117647%,33.725491%,41.568628%);fill-opacity:1;" d="M 36.730469 40.609375 C 36.816406 40.640625 36.898438 40.667969 36.984375 40.695312 C 36.761719 41.003906 36.5625 41.199219 36.222656 41.375 C 36.351562 41.085938 36.527344 40.855469 36.730469 40.609375 Z M 36.730469 40.609375 "/>
<path style=" stroke:none;fill-rule:nonzero;fill:rgb(93.333334%,23.921569%,32.941177%);fill-opacity:1;" d="M 40.519531 41.445312 C 40.601562 41.449219 40.6875 41.449219 40.773438 41.453125 C 40.835938 41.453125 40.898438 41.457031 40.964844 41.460938 C 40.964844 41.488281 40.964844 41.515625 40.964844 41.546875 C 40.832031 41.574219 40.699219 41.601562 40.566406 41.632812 C 40.457031 41.65625 40.457031 41.65625 40.34375 41.679688 C 40.121094 41.714844 39.917969 41.722656 39.695312 41.714844 C 39.972656 41.464844 40.148438 41.433594 40.519531 41.445312 Z M 40.519531 41.445312 "/>
<path style=" stroke:none;fill-rule:nonzero;fill:rgb(94.117647%,33.333334%,41.176471%);fill-opacity:1;" d="M 37.949219 39.777344 C 37.992188 39.800781 38.039062 39.824219 38.085938 39.847656 C 37.894531 40.039062 37.746094 40.101562 37.492188 40.1875 C 37.410156 40.1875 37.324219 40.1875 37.238281 40.1875 C 37.699219 39.757812 37.699219 39.757812 37.949219 39.777344 Z M 37.949219 39.777344 "/>
</g>
</svg>
